<svg xmlns="http://www.w3.org/2000/svg" fill="none" viewBox="0 0 16 16"> <g clip-path="url(#a)"> <path fill="#D65B28" d="M9.473 1.05 15.7 7.277c.4.4.4 1.047 0 1.447l-6.227 6.227c-.2.2-.462.3-.723.3h-1.5c-.66 0-.75-.535-.75-1.194V1.944c0-.66.09-1.194.75-1.194h1.5c.262 0 .524.1.723.3Z"/> <path fill="#FFE150" d="M7.25 14.875a.64.64 0 0 1-.458-.19L.565 8.458a.649.649 0 0 1 0-.917l6.227-6.227a.64.64 0 0 1 .458-.19.64.64 0 0 1 .458.19l6.227 6.227a.649.649 0 0 1 0 .917l-6.227 6.227a.64.64 0 0 1-.458.19Z"/> <path fill="#D65B28" d="M7.25 1.5a.27.27 0 0 1 .193.08l6.227 6.227a.272.272 0 0 1 0 .386L7.443 14.42a.27.27 0 0 1-.386 0L.83 8.193a.272.272 0 0 1 0-.386L7.057 1.58a.27.27 0 0 1 .193-.08Zm0-.75c-.262 0-.524.1-.724.3L.3 7.276c-.4.4-.4 1.047 0 1.447l6.227 6.227a1.02 1.02 0 0 0 1.448 0l6.227-6.227c.4-.4.4-1.047 0-1.447L7.975 1.049A1.028 1.028 0 0 0 7.25.75Z"/> <path stroke="#D65B28" d="M3.031 10.969 4.501 9.5V8"/> <path fill="#D65B28" d="M4.5 8.85a1.35 1.35 0 1 0 0-2.7 1.35 1.35 0 0 0 0 2.7Zm6 1a1.35 1.35 0 1 0 0-2.7 1.35 1.35 0 0 0 0 2.7Z"/> <path stroke="#D65B28" d="m13.5 5.5-2.542 2.458M4.5 12.5l3.151-3.151a1.2 1.2 0 0 0 0-1.697l-.303-.303a1.2 1.2 0 0 1 0-1.697L9.5 3.5"/> </g> <defs> <clipPath id="a"> <path fill="#fff" d="M0 0h16v16H0z"/> </clipPath> </defs> </svg>